<svg width="60" height="60" viewBox="0 0 60 60">
    <g>
        <path stroke-width="0.3" stroke-dasharray="none" fill="black" stroke="none" d="M3.9312 50.0544C7.525440000000001 50.0544,11.934000000000001 46.74096,11.934000000000001 43.3152C11.934000000000001 41.23728,10.30536 39.9456,8.0028 39.9456C3.56616 39.9456,0 43.23096,0 46.6848C0 48.7908,1.74096 50.0544,3.9312 50.0544"></path>
        <path stroke-width="0.3" stroke-dasharray="none" fill="black" stroke="none" d="M17.8652 50.0544C21.45944 50.0544,25.868000000000002 46.74096,25.868000000000002 43.3152C25.868000000000002 41.23728,24.23936 39.9456,21.9368 39.9456C17.50016 39.9456,13.934000000000001 43.23096,13.934000000000001 46.6848C13.934000000000001 48.7908,15.67496 50.0544,17.8652 50.0544"></path>
        <path stroke-width="0.3" stroke-dasharray="none" fill="black" stroke="none" d="M31.799200000000003 50.0544C35.393440000000005 50.0544,39.80200000000001 46.74096,39.80200000000001 43.3152C39.80200000000001 41.23728,38.17336 39.9456,35.8708 39.9456C31.434160000000002 39.9456,27.868000000000002 43.23096,27.868000000000002 46.6848C27.868000000000002 48.7908,29.608960000000003 50.0544,31.799200000000003 50.0544"></path>
        <path stroke-width="0.3" stroke-dasharray="none" fill="black" stroke="none" d="M45.733200000000004 50.0544C49.32744000000001 50.0544,53.736000000000004 46.74096,53.736000000000004 43.3152C53.736000000000004 41.23728,52.10736000000001 39.9456,49.80480000000001 39.9456C45.36816 39.9456,41.80200000000001 43.23096,41.80200000000001 46.6848C41.80200000000001 48.7908,43.54296000000001 50.0544,45.733200000000004 50.0544"></path>
        <path stroke-width="1.5" stroke-dasharray="none" fill="none" stroke="black" d="M11.184000000000001 43L11.184000000000001 10.75"></path>
        <path stroke-width="1.5" stroke-dasharray="none" fill="none" stroke="black" d="M25.118000000000002 43L25.118000000000002 10.75"></path>
        <path stroke-width="1.5" stroke-dasharray="none" fill="none" stroke="black" d="M39.05200000000001 43L39.05200000000001 10.75"></path>
        <path stroke-width="1.5" stroke-dasharray="none" fill="none" stroke="black" d="M52.986000000000004 43L52.986000000000004 10.75"></path>
        <path stroke-width="0.3" stroke-dasharray="none" fill="black" stroke="none" d="M10.434000000000001 10L10.434000000000001 15L53.236000000000004 14.999999999999998L53.236000000000004 9.999999999999998Z"></path>
        <path stroke-width="0.3" stroke-dasharray="none" fill="black" stroke="none" d="M10.434000000000001 17.5L10.434000000000001 22.5L53.236000000000004 22.5L53.236000000000004 17.5Z"></path>
    </g>
</svg>