<svg width="60" height="60" viewBox="0 0 60 60">
    <g>
        <path stroke-width="1.5" stroke-dasharray="none" fill="none" stroke="black" d="M31.184 42.45L31.184 10"></path>
        <path stroke-width="0.3" stroke-dasharray="none" fill="black" stroke="none" d="M23.9312 50.0544C30.58616 50.0544,31.934 44.63496,31.934 43.3152C31.934 41.23728,30.27728 39.9456,27.91856 39.9456C21.90944 39.9456,20 44.60688,20 46.6848C20 48.84696,21.6848 50.0544,23.9312 50.0544M23.03264 48.51C22.19024 48.51,21.6848 48.06072,21.404 47.58336C21.29168 47.35872,21.17936 47.04984,21.17936 46.76904C21.17936 44.80344,27.04808 41.60232,28.92944 41.60232C29.71568 41.60232,30.136879999999998 41.96736,30.44576 42.44472C30.55808 42.69744,30.6704 42.95016,30.6704 43.23096C30.6704 44.97192,24.97016 48.51,23.03264 48.51"></path>
    </g>
</svg>