<svg width="60" height="60" viewBox="0 0 60 60">
    <g>
        <path stroke-width="1.5" stroke-dasharray="none" fill="none" stroke="black" d="M16.184 43L16.184 10"></path>
        <path stroke-width="0.3" stroke-dasharray="none" fill="black" stroke="none" d="M8.9312 50.0544C12.52544 50.0544,16.934 46.74096,16.934 43.3152C16.934 41.23728,15.30536 39.9456,13.0028 39.9456C8.56616 39.9456,5 43.23096,5 46.6848C5 48.7908,6.74096 50.0544,8.9312 50.0544"></path>
        <path stroke-width="0.3" stroke-dasharray="none" fill="black" stroke="none" d="M23.934 40 A2 2 0 0 0 19.934 40 A2 2 0 0 0 23.934 40"></path>
        <path stroke-width="1.5" stroke-dasharray="none" fill="none" stroke="black" d="M42.62044136436238 43L42.62044136436238 13"></path>
        <path stroke-width="0.3" stroke-dasharray="none" fill="black" stroke="none" d="M35.36764136436238 50.0544C38.961881364362384 50.0544,43.37044136436238 46.74096,43.37044136436238 43.3152C43.37044136436238 41.23728,41.74180136436238 39.9456,39.43924136436238 39.9456C35.00260136436238 39.9456,31.43644136436238 43.23096,31.43644136436238 46.6848C31.43644136436238 48.7908,33.17740136436238 50.0544,35.36764136436238 50.0544"></path>
        <path stroke-width="0.3" stroke-dasharray="none" fill="black" stroke="none" d="M51.501881364362376 39.95504C51.501881364362376 39.95504,52.54084136436238 36.10808,52.54084136436238 32.93504C52.54084136436238 27.88064,50.43484136436238 23.13512,47.90764136436238 19.0916C45.82972136436238 15.89048,44.144921364362375 12.408560000000001,43.499081364362375 8.53352C43.358681364362376 7.88768,43.04980136436238 7.6349599999999995,42.628601364362375 7.6349599999999995C42.207401364362376 7.6349599999999995,41.87044136436238 7.74728,41.87044136436238 8.25272L41.87044136436238 17.91224C44.53804136436238 18.3896,48.38500136436238 23.89328,49.845161364362376 27.31904C50.43484136436238 28.694960000000002,50.79988136436238 30.99752,50.79988136436238 33.38432C50.79988136436238 35.20952,50.51908136436238 37.11896,49.845161364362376 38.94416C49.760921364362375 39.168800000000005,49.704761364362376 39.36536,49.704761364362376 39.53384C49.704761364362376 40.17968,50.12596136436238 40.54472,50.350601364362376 40.7132C50.60332136436238 40.88168,51.30532136436238 40.62896,51.501881364362376 39.95504"></path>
    </g>
</svg>