<svg width="60" height="60" viewBox="0 0 60 60">
    <g>
        <path stroke-width="0.3" stroke-dasharray="none" fill="black" stroke="none" d="M28.73288 24.9456C23.3696 24.9456,20 27.16392,20 29.91576C20 32.63952,22.30256 35.0544,28.33976 35.0544C34.96664 35.0544,37.07264 32.75184,37.07264 29.91576C37.07264 27.0516,32.495599999999996 24.9456,28.73288 24.9456M24.4928 27.44472C24.94208 26.04072,26.430320000000002 25.84416,27.69392 25.84416C30.473840000000003 25.84416,32.69216 28.82064,32.69216 31.2636C32.69216 32.49912,32.15864 33.6504,30.83888 33.95928C30.44576 34.071600000000004,29.99648 34.12776,29.57528 34.12776C28.11512 34.12776,26.62688 33.14496,25.784480000000002 32.02176C24.97016 31.09512,24.38048 29.7192,24.38048 28.42752C24.38048 28.09056,24.40856 27.78168,24.4928 27.44472"></path>
    </g>
</svg>